<svg width="176" height="88" viewBox="0 0 176 88" fill="none" xmlns="http://www.w3.org/2000/svg">
<path d="M121.835 14H95.062L87.9241 29.7172L80.6939 14H51.0012L38.9999 74H68.9691L71.254 60.1066L78.3168 74H96.7184L104.451 60.0246L106.602 74H136.613L124.42 14H121.835Z" fill="#C4C4C4"/>
<path d="M112.644 45.6882C112.644 45.6882 104.355 54.8685 87.6407 54.8685C70.9331 54.8685 62.6442 45.6882 62.6442 45.6882C62.6442 45.6882 70.9331 36.5045 87.6407 36.5045C104.355 36.5045 112.644 45.6882 112.644 45.6882Z" fill="white"/>
<path d="M95.5565 45.6881C95.5565 50.046 92.0148 53.5945 87.6432 53.5945C83.2751 53.5945 79.7334 50.046 79.7334 45.6881C79.7334 41.3165 83.2751 37.7749 87.6432 37.7749C92.0148 37.7749 95.5565 41.3165 95.5565 45.6881Z" fill="#C4C4C4"/>
</svg>
