<svg width="176" height="88" viewBox="0 0 176 88" fill="none" xmlns="http://www.w3.org/2000/svg">
<path d="M121.834 14H95.0619L87.9239 29.7172L80.6937 14H51.0011L38.9998 74H68.969L71.2538 60.1066L78.3167 74H96.7183L104.451 60.0246L106.602 74H136.612L124.42 14H121.834Z" fill="#939393"/>
<path d="M112.644 45.6882C112.644 45.6882 104.355 54.8685 87.6406 54.8685C70.933 54.8685 62.644 45.6882 62.644 45.6882C62.644 45.6882 70.933 36.5045 87.6406 36.5045C104.355 36.5045 112.644 45.6882 112.644 45.6882Z" fill="white"/>
<path d="M95.5562 45.6881C95.5562 50.046 92.0146 53.5945 87.643 53.5945C83.2748 53.5945 79.7332 50.046 79.7332 45.6881C79.7332 41.3165 83.2748 37.7749 87.643 37.7749C92.0146 37.7749 95.5562 41.3165 95.5562 45.6881Z" fill="#939393"/>
</svg>
