<svg width="176" height="88" viewBox="0 0 176 88" fill="none" xmlns="http://www.w3.org/2000/svg">
<g clip-path="url(#clip0_2063_28585)">
<path fill-rule="evenodd" clip-rule="evenodd" d="M92.153 16.6364C109.733 16.6364 124.072 30.9745 124.072 48.5547C124.072 66.1365 109.733 80.4746 92.153 80.4746C74.5723 80.4746 60.2336 66.1365 60.2336 48.5547C60.2336 30.975 74.5723 16.6364 92.153 16.6364Z" fill="#CC2229"/>
<path fill-rule="evenodd" clip-rule="evenodd" d="M92.153 25.5948C104.798 25.5948 115.113 35.9088 115.113 48.5546C115.113 61.2019 104.798 71.5158 92.153 71.5158C79.5062 71.5158 69.1923 61.2019 69.1923 48.5546C69.1923 35.9088 79.5062 25.5948 92.153 25.5948Z" fill="black"/>
<path d="M115.539 53.9966C116.496 53.6925 117.299 53.5982 118.273 54.341C119.694 55.4232 121.583 57.2127 123.722 57.1386C124.492 57.1125 125.313 56.9853 125.313 56.1733C125.314 54.6161 122.526 53.527 121.989 52.1732C122.206 52.0332 122.935 51.848 123.236 51.8563C123.952 51.7738 126.378 52.5661 128.094 52.5028C129.063 52.4674 129.852 52.2994 129.911 51.2776C130.001 49.7588 128.49 48.9767 126.689 48.3956C124.582 47.7147 122.065 47.4023 121.065 47.1645C121.467 46.1845 122.548 45.205 123.511 44.2972C124.442 43.495 127.046 42.3175 127.081 40.8561C127.106 39.8442 126.328 39.6968 125.506 39.6467C123.776 39.5406 122.476 40.0692 120.994 40.8291C119.579 41.5547 118.206 42.4497 116.699 43.018C116.306 43.1551 115.629 43.2366 114.956 43.243C114.239 43.2504 113.527 43.1733 113.171 42.9886C112.475 42.5587 112.153 40.8566 112.033 40.0819C111.485 36.5338 108.452 33.1983 105.418 31.5522C103.075 30.2809 101.191 30.0775 98.9846 29.8397C98.1721 29.7523 97.338 29.5799 96.5265 29.5371C96.5255 28.5547 96.0583 27.5968 95.7793 26.6546C95.3293 25.1337 94.4323 23.8526 93.9239 22.3504C93.2583 20.3815 94.0791 18.3311 93.4577 16.3004C93.693 16.2954 94.1391 16.1363 94.1464 15.9221C94.1617 15.5139 93.7127 14.9062 93.945 14.7982C96.4616 14.2229 97.8204 13.9287 98.6673 12.5144L98.6663 12.5134C98.791 12.1769 98.9389 12.0021 99.0637 11.6651C99.0961 11.2804 99.0052 11.0805 98.8269 11.0063C98.2428 10.7637 97.0594 11.3993 96.1232 11.3291C95.9609 11.3207 95.8025 11.2771 95.6589 11.2013C95.5152 11.1254 95.3899 11.0192 95.2915 10.8899C93.976 9.5739 94.6259 7.34125 92.1751 7.25823C89.9213 7.1816 87.3964 8.48238 85.9227 9.98654C85.4619 10.5721 85.0562 10.4621 84.7904 10.4621C84.087 10.4625 83.4533 10.3815 82.85 10.5239C81.9688 10.7322 81.1887 11.1768 80.4779 12.0419C80.3109 12.2464 80.1162 12.4264 79.8992 12.5768C77.6872 14.1252 77.2431 17.2823 75.9074 19.4924C75.2158 20.6375 74.3758 21.8965 73.3378 22.7503C72.063 23.7985 71.6018 25.0507 70.8644 26.4394C69.8132 28.4181 70.0377 29.6703 70.83 31.5212C71.4367 32.375 71.5905 33.1516 71.9073 34.2569C70.3314 35.3524 68.1032 37.0029 67.1866 38.6814C66.1368 40.6051 64.0039 41.4623 62.5061 42.9409C61.9672 43.327 61.3296 43.8119 60.7912 44.198C58.3994 42.9842 56.0704 41.6141 53.6094 40.4892C52.8931 40.1615 49.2752 38.4373 47.2395 38.5655C46.2959 38.6254 45.5757 39.4021 46.1657 40.1645C47.0357 41.2904 49.0124 42.0641 49.7556 43.107C48.4362 44.1877 45.5183 44.9157 45.6759 46.382C45.728 46.8693 46.6152 47.361 47.6281 47.3296C48.865 47.2918 49.9118 47.2348 50.3879 47.3964C50.3618 48.4889 48.839 49.3063 48.2377 50.1498C47.9435 50.5614 47.8565 50.9991 48.2451 51.5159C48.9348 52.4822 52.0364 51.3386 52.8411 51.0939C53.7332 51.5134 55.898 53.1262 56.8191 52.9812C57.1467 53.053 57.5078 52.8948 57.8354 52.968C59.5823 53.7402 60.3083 55.7906 62.1937 56.1551C62.5739 56.2288 62.9153 56.3919 63.268 56.1271C64.2475 55.4585 64.11 54.3081 63.5578 52.936C64.3743 52.6875 65.6406 52.3623 66.3205 51.8711V51.872C67.3202 51.1494 68.4397 50.6135 69.4688 49.9351C70.3368 49.3623 71.1263 49.2115 72.1239 49.0052C72.2011 49.9715 72.429 50.8675 72.7807 51.7694C73.2548 52.9862 73.6266 54.4019 74.276 55.5199C75.9575 58.4158 78.2093 61.5577 81.172 63.2608L81.061 63.4976L80.8252 63.9986H80.8266C80.4577 64.5321 78.4668 65.8953 78.0187 66.669C81.9226 69.7239 86.8305 71.5489 92.153 71.5489C102.993 71.5489 112.122 63.9809 114.527 53.8586L115.503 54.2241L115.539 53.9966Z" fill="white"/>
<path d="M82.7706 25.3529C82.8595 25.0542 83.6961 25.8378 84.3047 25.7867C84.5086 25.77 84.7036 25.654 84.8166 25.3342C84.9349 24.9968 85.101 24.8086 85.2336 24.817C85.3378 24.8239 85.3721 25.2969 85.2636 25.684C85.1408 26.1227 84.5916 26.6783 84.119 26.6537C83.5585 26.6247 82.6237 25.8461 82.7706 25.3529ZM87.8892 19.045C87.9658 19.2518 87.9521 19.4886 87.9108 20.0167C87.8696 20.5447 87.4265 21.2609 87.1042 21.2423C86.782 21.2236 86.3841 20.5089 86.4578 19.7111C86.5177 19.0597 86.9097 18.2138 87.6745 18.286C87.9324 18.3106 88.1771 18.5479 88.3269 18.8637C88.4777 19.1796 88.5313 19.5745 88.5136 19.7917C88.5067 19.8801 88.464 19.8938 88.4409 19.8963C88.403 19.9002 88.3721 19.8506 88.319 19.718C88.2296 19.4935 88.1456 19.1447 87.8892 19.045ZM82.5721 18.3646C82.665 18.5174 82.7514 18.6854 82.7514 19.214C82.7514 19.7425 82.3344 20.6312 82.0052 20.6425C81.6766 20.6538 81.2055 19.9651 81.2055 19.1482C81.2055 18.4811 81.5007 17.587 82.3088 17.587C82.5736 17.587 82.8438 17.8056 83.0255 18.1121C83.2078 18.4192 83.2981 18.8117 83.2864 19.0371C83.2868 19.1162 83.193 19.1005 83.1714 19.0371C83.1272 18.94 83.0758 18.8462 83.0177 18.7566C82.8958 18.5719 82.7308 18.3843 82.5721 18.3646ZM83.169 29.4773C83.8498 29.4773 84.4054 30.3016 84.4054 31.3116C84.4054 32.322 83.8498 33.1458 83.169 33.1458C82.4881 33.1458 81.933 32.322 81.933 31.3116C81.933 30.3021 82.4881 29.4773 83.169 29.4773ZM63.4553 50.9629C63.7726 50.8784 63.4391 52.0288 63.4857 52.2435C64.3302 52.0333 65.5794 51.7513 66.2352 51.096C68.2468 49.6031 70.2579 48.6924 72.2695 47.9934C72.7248 47.9079 74.986 47.5709 74.8028 48.0297C74.5365 48.3166 73.8537 48.5735 73.2053 48.6993C73.1925 50.1479 73.6523 51.826 74.4265 53.1788C75.8005 56.6184 78.6152 59.9898 81.7743 61.9817C83.4775 63.0556 87.6888 64.7592 91.4821 65.6296C94.8785 66.4077 96.6371 66.2658 97.5562 66.5821C97.7547 67.2232 95.5402 66.9609 94.1274 66.8611C90.0526 66.5723 83.7692 64.3205 82.0661 63.4215C81.4953 64.7764 79.7303 65.8846 78.6678 66.8498C78.401 67.0925 78.1343 67.3352 77.9594 67.0522C77.6038 66.4775 80.3837 64.6413 80.8268 64.0002H80.8253L81.1726 63.2624C78.21 61.5593 75.9581 58.4173 74.2767 55.5215C73.6272 54.404 73.2554 52.9877 72.7813 51.7709C72.4296 50.869 72.2017 49.973 72.1246 49.0068C71.1269 49.2131 70.337 49.3639 69.4694 49.9367C68.4403 50.6151 67.3208 51.1515 66.3211 51.8736V51.8726C65.6413 52.3639 64.3754 52.6891 63.5584 52.9376C64.1111 54.3096 64.2481 55.4601 63.2686 56.1287C62.9159 56.3935 62.5745 56.2304 62.1943 56.1567C60.3094 55.7922 59.5834 53.7418 57.8361 52.9696C57.5084 52.8969 57.1473 53.055 56.8197 52.9828C55.8986 53.1277 53.7338 51.515 52.8417 51.0955C52.0366 51.3401 48.9349 52.4837 48.2457 51.5175C47.8571 51.0002 47.9441 50.563 48.2383 50.1514C48.8396 49.3079 50.3624 48.4905 50.3885 47.398C49.9125 47.2364 48.8651 47.2934 47.6287 47.3312C46.6158 47.3626 45.7286 46.8709 45.6766 46.3836C45.5189 44.9168 48.4373 44.1888 49.7562 43.1085C49.0135 42.0652 47.0363 41.2915 46.1663 40.1661C45.5763 39.4032 46.2965 38.6265 47.2401 38.5671C49.2758 38.4384 52.8933 40.1631 53.61 40.4908C56.0711 41.6157 58.3995 42.9857 60.7918 44.1996C61.3302 43.8135 61.9683 43.3286 62.5067 42.9425C64.0045 41.4639 66.1374 40.6067 67.1872 38.683C68.1038 37.0045 70.332 35.3544 71.9079 34.2585C71.5906 33.1532 71.4373 32.3766 70.8306 31.5228C70.0388 29.6718 69.8138 28.4197 70.865 26.441C71.6019 25.0523 72.0636 23.8006 73.3384 22.7518C74.3764 21.8976 75.2164 20.6386 75.908 19.494C77.2437 17.2839 77.6878 14.1268 79.8998 12.5784C80.1168 12.428 80.3115 12.2479 80.4785 12.0434C81.1888 11.1784 81.9689 10.7338 82.8506 10.5255C83.4539 10.3831 84.0876 10.4641 84.791 10.4636C85.0568 10.4636 85.4625 10.5737 85.9233 9.98812C87.397 8.48397 89.9219 7.18318 92.1757 7.25982C94.626 7.34283 93.9766 9.57549 95.2921 10.8915C95.3905 11.0207 95.5159 11.1269 95.6595 11.2027C95.8032 11.2786 95.9616 11.3222 96.1238 11.3307C97.0601 11.4009 98.2429 10.7653 98.8275 11.0079C99.0058 11.0821 99.0972 11.282 99.0643 11.6667C98.9395 12.0037 98.7917 12.1785 98.6669 12.515L98.6679 12.516C97.8205 13.9303 96.4622 14.2245 93.9456 14.7998C93.7133 14.9073 94.1623 15.5155 94.147 15.9237C94.1392 16.1379 93.6931 16.297 93.4583 16.3019C94.0802 18.3327 93.2589 20.3831 93.9245 22.352C94.4329 23.8542 95.3299 25.1353 95.7799 26.6562C96.0589 27.5979 96.5266 28.5562 96.5271 29.5387C97.3386 29.5815 98.1727 29.7539 98.9852 29.8413C101.191 30.0791 103.075 30.2824 105.418 31.5538C108.452 33.1999 111.485 36.5354 112.034 40.0835C112.154 40.8587 112.476 42.5608 113.172 42.9902C113.528 43.1744 114.239 43.2515 114.956 43.2446C115.63 43.2382 116.307 43.1567 116.7 43.0196C118.207 42.4513 119.58 41.5562 120.995 40.8307C122.476 40.0708 123.776 39.5422 125.506 39.6483C126.329 39.6984 127.107 39.8458 127.082 40.8577C127.047 42.3196 124.443 43.4966 123.511 44.2988C122.548 45.2066 121.468 46.1866 121.066 47.1661C122.065 47.4039 124.583 47.7163 126.69 48.3972C128.491 48.9788 130.001 49.7603 129.912 51.2792C129.852 52.301 129.063 52.469 128.095 52.5044C126.378 52.5677 123.953 51.7754 123.237 51.8579C122.936 51.8491 122.206 52.0342 121.99 52.1747C122.527 53.5286 125.314 54.6176 125.313 56.1749C125.313 56.9864 124.493 57.1141 123.723 57.1401C121.584 57.2138 119.695 55.4247 118.274 54.3426C117.074 53.4284 115.929 54.0105 114.643 54.3003C113.732 54.6707 110.288 54.7262 109.221 54.4452C107.154 55.2101 105.756 55.2474 103.541 55.1138C102.849 54.823 102.467 54.2954 102.478 53.7157C102.503 52.3447 104.145 50.5389 104.874 49.8512C103.882 49.0127 103.121 48.7307 102.767 47.3685C102.574 46.6218 102.905 45.8997 103.249 46.5211C103.298 46.6101 103.596 46.6331 103.633 46.7849C103.992 48.154 104.674 48.4586 105.537 49.3615C105.976 49.1905 105.875 48.7091 106.698 48.4846C106.953 48.4463 106.974 48.7253 106.828 48.995C106.639 49.3423 106.213 49.7166 106.087 49.8173C105.574 50.228 104.987 50.5237 104.525 51.0945C104.219 51.4733 103.337 52.7293 103.387 53.1862C103.46 53.8454 103.827 54.0709 104.277 54.1849C106.458 54.7405 109.374 53.7541 111.724 52.8571C112.16 52.69 112.607 52.3368 112.964 52.3781C113.317 52.7598 111.879 53.4795 110.947 53.8174C111.669 54.0179 112.384 54.0974 113.049 53.9535C114.411 53.6578 115.662 52.8998 117.062 52.9951C119.176 53.139 120.813 56.335 123.359 56.5374C123.391 56.5394 123.422 56.5413 123.452 56.5423C123.912 56.5556 124.285 56.389 124.197 55.913C123.896 54.2875 121.063 52.7068 120.616 52.0677C120.368 51.7125 122.783 51.2213 123.131 51.2119C124.614 51.1707 126.259 51.9355 127.627 51.7646C129.953 51.4728 127.902 49.4332 126.789 49.132C125.043 48.659 122.914 48.0518 121.105 47.7566C121.057 48.2129 121.169 48.828 120.899 48.967C120.479 48.9729 120.375 48.2233 120.343 47.4731C120.318 46.9274 121.537 45.408 121.896 44.9988C122.624 44.1626 123.472 43.4377 124.41 42.8472C124.41 42.5191 127.095 41.4501 125.731 40.6922C124.065 39.8114 121.914 41.1397 120.44 41.9163L115.808 44.0994C115.091 44.315 114.821 44.4319 114.12 44.6913C113.487 44.9065 114.08 44.0959 114.116 43.8621C113.444 43.8808 112.577 43.9692 111.818 44.0517C110.69 43.5629 111.092 40.8459 110.632 39.6306C109.477 36.6066 107.311 33.6778 104.458 32.1919C103.323 31.6019 102.184 31.0753 100.945 30.8361C99.4504 30.5482 97.846 30.5973 96.363 30.3984C95.9523 32.9213 95.0637 34.3017 93.4097 36.2431C93.17 36.525 93.1592 36.4897 93.0968 36.4332C93.0604 36.3998 92.7976 36.5535 93.0211 36.2082C94.2865 34.258 95.8123 31.9865 95.6777 29.9965C95.5569 28.2163 95.0936 26.9008 94.1952 25.3215C93.7241 24.4928 93.422 23.7407 93.2147 22.9488C92.6488 20.7844 93.5045 18.7016 92.6498 16.467C92.523 15.4865 91.7267 14.5836 91.5293 14.004C91.4418 13.747 91.7046 13.5913 91.908 13.8384C92.2995 14.3134 92.5702 14.9776 92.9617 15.4526C92.9465 14.955 93.0413 14.4195 93.3964 14.3282C93.6946 14.2515 94.1465 14.2712 94.4914 14.1052C94.8338 14.1916 98.4041 12.8962 98.2149 11.8931C98.1373 11.4805 96.6931 12.1422 96.363 12.1854V12.1864C96.31 12.1903 96.2569 12.1923 96.2038 12.1923C93.4731 12.1908 94.0306 8.43337 91.962 8.2747C91.6015 8.24719 91.1839 8.19463 90.7089 8.34839C87.9491 8.48446 86.6115 11.4368 84.3076 11.3125C83.2505 11.2555 81.9767 11.4599 81.2409 12.3357C80.8872 12.7567 80.4313 13.3084 79.9809 13.6237C79.0598 14.2677 78.5317 15.9178 77.953 17.0113C77.1568 19.0494 75.8884 21.1013 74.4373 22.7292C73.8144 23.4273 72.803 24.1843 72.4163 25.0346C71.7439 26.5142 70.7914 27.6946 71.1111 29.4026C71.3175 30.5045 72.237 32.5868 72.7234 33.4258C72.9046 33.7393 73.3767 34.5066 73.8208 35.2041C74.2133 35.8191 74.6657 36.4199 74.2688 36.7053C74.09 36.834 73.2279 35.3731 72.3495 34.789C71.2497 35.5603 70.3075 36.3968 69.2685 37.2255C68.1392 38.126 67.6602 39.4543 66.6075 40.4657C65.8206 41.2202 65.0007 41.9104 64.0934 42.5151C63.1944 43.1139 62.4198 44.0399 61.4972 44.596C61.7227 44.6898 63.0603 44.9674 62.8845 45.3245C62.6639 45.7725 61.4869 45.4561 60.8709 45.2597C59.8933 44.9477 58.8819 44.4585 58.3695 44.0743C57.7722 43.7511 52.5013 40.8425 52.1972 40.6946C50.7289 39.9809 48.7119 39.3143 47.7186 39.2853C47.387 39.275 47.1547 39.2926 47.0692 39.5058C47.0183 39.5593 46.9848 39.6269 46.973 39.6997C46.9613 39.7726 46.9718 39.8473 47.0034 39.9141C47.2583 40.5281 48.9261 41.3386 49.6885 41.9792C50.0711 42.301 51.7457 43.6283 51.5998 44.5248C51.5325 44.9379 50.4106 43.9554 50.0647 43.5516C49.4939 43.8935 48.8121 44.345 48.2447 44.6933V44.6918C48.0526 44.8102 46.5568 45.7155 46.687 45.9096C46.6256 47.2536 49.7538 46.6272 50.7431 46.81C51.3886 46.9289 52.8771 48.1073 52.4664 48.4394C52.3578 48.517 52.1972 48.3407 52.0223 48.2463C51.6372 48.04 51.1843 47.7129 51.0732 47.6917C50.7029 48.4222 49.995 49.4843 49.3623 49.9917C49.3353 50.0138 48.9855 50.2884 48.9988 50.314L49.0061 50.4628C48.9025 50.8774 49.0744 51.067 49.3839 51.123C50.0647 51.2458 51.6087 50.788 52.1505 50.5944C51.7855 50.1936 51.8076 49.3614 52.1544 49.5344C52.8019 49.8566 55.1043 51.6604 55.964 52.188C56.1605 51.9011 56.1418 51.5627 56.3648 51.4703C57.0339 51.1933 57.8965 52.0755 58.5955 52.3845C60.1173 53.057 60.4607 54.1574 61.6908 55.0961C62.0268 55.352 62.5519 55.3137 62.9518 55.4041C63.5958 54.5155 62.9532 53.8007 62.7764 52.918C62.6025 52.242 63.2092 51.0292 63.4553 50.9629ZM81.6884 16.4916C81.623 16.858 81.4649 17.0078 81.2698 17.0373C81.0945 17.0634 80.9329 16.8639 80.9736 16.5092C81.0567 15.7822 81.9237 15.0134 82.4753 14.7767C82.7264 14.6686 82.9228 14.6642 82.9292 14.8209C82.9351 14.9707 81.7847 15.5253 81.7355 16.1192C81.7193 16.243 81.7041 16.3673 81.6884 16.4916ZM87.3204 14.9918C87.4712 14.8336 87.6485 14.9736 87.8342 15.0085C88.6398 15.1603 89.612 16.6183 89.3315 16.9327C89.1974 17.0098 88.6418 16.5672 88.1471 16.0838C87.6515 15.6 87.1239 15.1682 87.3204 14.9918Z" fill="black"/>
<path d="M115.678 41.7572L111.247 32.8477L65.6307 56.3168L69.9158 65.3747L115.678 41.7572Z" fill="#CC2229"/>
</g>
<defs>
<clipPath id="clip0_2063_28585">
<rect width="84.3441" height="74" fill="white" transform="translate(45.6345 7)"/>
</clipPath>
</defs>
</svg>
