<svg width="176" height="88" viewBox="0 0 176 88" fill="none" xmlns="http://www.w3.org/2000/svg">
<g clip-path="url(#clip0_2063_28504)">
<path fill-rule="evenodd" clip-rule="evenodd" d="M92.153 16.6363C109.733 16.6363 124.072 30.9744 124.072 48.5547C124.072 66.1364 109.733 80.4745 92.153 80.4745C74.5723 80.4745 60.2336 66.1364 60.2336 48.5547C60.2336 30.9749 74.5723 16.6363 92.153 16.6363Z" fill="#C4C4C4"/>
<path fill-rule="evenodd" clip-rule="evenodd" d="M92.1529 25.5948C104.798 25.5948 115.113 35.9088 115.113 48.5546C115.113 61.2019 104.798 71.5158 92.1529 71.5158C79.5061 71.5158 69.1921 61.2019 69.1921 48.5546C69.1921 35.9088 79.5061 25.5948 92.1529 25.5948Z" fill="black"/>
<path d="M115.539 53.9967C116.495 53.6926 117.299 53.5983 118.273 54.341C119.694 55.4232 121.583 57.2128 123.722 57.1386C124.492 57.1126 125.313 56.9853 125.313 56.1733C125.314 54.6161 122.526 53.5271 121.989 52.1732C122.206 52.0332 122.935 51.848 123.236 51.8564C123.952 51.7739 126.378 52.5662 128.094 52.5028C129.063 52.4675 129.852 52.2995 129.911 51.2777C130 49.7588 128.49 48.9768 126.689 48.3956C124.582 47.7148 122.065 47.4024 121.065 47.1646C121.467 46.1846 122.547 45.2051 123.511 44.2973C124.442 43.4951 127.046 42.3176 127.081 40.8562C127.106 39.8442 126.328 39.6969 125.506 39.6468C123.776 39.5407 122.476 40.0692 120.994 40.8292C119.579 41.5547 118.206 42.4498 116.699 43.0181C116.306 43.1552 115.629 43.2367 114.955 43.2431C114.239 43.2505 113.527 43.1733 113.171 42.9886C112.475 42.5588 112.153 40.8567 112.033 40.082C111.484 36.5338 108.452 33.1984 105.418 31.5522C103.074 30.2809 101.191 30.0775 98.9845 29.8398C98.172 29.7524 97.3379 29.5799 96.5263 29.5372C96.5254 28.5547 96.0582 27.5968 95.7792 26.6546C95.3292 25.1338 94.4322 23.8526 93.9238 22.3505C93.2582 20.3816 94.079 18.3312 93.4576 16.3004C93.6929 16.2955 94.1389 16.1363 94.1463 15.9222C94.1615 15.514 93.7126 14.9063 93.9449 14.7982C96.4615 14.223 97.8202 13.9287 98.6671 12.5145L98.6661 12.5135C98.7909 12.177 98.9388 12.0021 99.0636 11.6651C99.096 11.2805 99.0051 11.0806 98.8268 11.0064C98.2427 10.7637 97.0593 11.3994 96.123 11.3291C95.9608 11.3208 95.8024 11.2772 95.6587 11.2013C95.5151 11.1255 95.3897 11.0192 95.2914 10.89C93.9759 9.57396 94.6258 7.34131 92.175 7.25829C89.9212 7.18166 87.3963 8.48244 85.9226 9.9866C85.4618 10.5721 85.056 10.4621 84.7903 10.4621C84.0868 10.4626 83.4531 10.3816 82.8499 10.524C81.9686 10.7323 81.1886 11.1769 80.4777 12.0419C80.3108 12.2464 80.116 12.4265 79.8991 12.5769C77.687 14.1252 77.243 17.2824 75.9073 19.4925C75.2156 20.6375 74.3756 21.8966 73.3377 22.7503C72.0629 23.7986 71.6016 25.0508 70.8643 26.4395C69.8131 28.4182 70.0376 29.6703 70.8299 31.5213C71.4366 32.375 71.5903 33.1517 71.9072 34.257C70.3313 35.3524 68.1031 37.003 67.1864 38.6815C66.1367 40.6052 64.0037 41.4624 62.506 42.941C61.9671 43.3271 61.3295 43.8119 60.7911 44.1981C58.3993 42.9842 56.0703 41.6142 53.6092 40.4892C52.893 40.1616 49.2751 38.4374 47.2394 38.5656C46.2958 38.6255 45.5756 39.4021 46.1656 40.1645C47.0356 41.2904 49.0123 42.0641 49.7555 43.107C48.4361 44.1877 45.5181 44.9157 45.6758 46.3821C45.7279 46.8694 46.6151 47.3611 47.628 47.3297C48.8649 47.2918 49.9117 47.2349 50.3877 47.3965C50.3617 48.489 48.8389 49.3064 48.2376 50.1498C47.9434 50.5615 47.8564 50.9992 48.245 51.516C48.9347 52.4822 52.0363 51.3386 52.841 51.094C53.733 51.5135 55.8979 53.1262 56.819 52.9813C57.1466 53.053 57.5077 52.8948 57.8353 52.968C59.5821 53.7403 60.3082 55.7907 62.1935 56.1552C62.5738 56.2288 62.9152 56.3919 63.2679 56.1272C64.2474 55.4586 64.1098 54.3081 63.5577 52.9361C64.3741 52.6875 65.6405 52.3624 66.3204 51.8711V51.8721C67.3201 51.1495 68.4396 50.6136 69.4687 49.9352C70.3367 49.3624 71.1261 49.2116 72.1238 49.0053C72.2009 49.9715 72.4289 50.8675 72.7806 51.7694C73.2546 52.9862 73.6265 54.402 74.2759 55.52C75.9574 58.4158 78.2092 61.5577 81.1719 63.2609L81.0608 63.4976L80.825 63.9987H80.8265C80.4576 64.5322 78.4666 65.8953 78.0186 66.669C81.9225 69.724 86.8304 71.5489 92.1529 71.5489C102.992 71.5489 112.122 63.981 114.527 53.8586L115.503 54.2241L115.539 53.9967Z" fill="white"/>
<path d="M82.7704 25.3529C82.8594 25.0542 83.6959 25.8377 84.3046 25.7866C84.5084 25.7699 84.7034 25.654 84.8164 25.3342C84.9348 24.9967 85.1009 24.8086 85.2335 24.8169C85.3376 24.8238 85.372 25.2969 85.2635 25.6839C85.1406 26.1226 84.5914 26.6782 84.1189 26.6536C83.5584 26.6247 82.6236 25.8461 82.7704 25.3529ZM87.8891 19.0449C87.9657 19.2517 87.952 19.4885 87.9107 20.0166C87.8694 20.5447 87.4264 21.2609 87.1041 21.2422C86.7819 21.2236 86.384 20.5088 86.4576 19.711C86.5176 19.0597 86.9096 18.2138 87.6744 18.286C87.9323 18.3105 88.177 18.5478 88.3268 18.8637C88.4776 19.1795 88.5311 19.5745 88.5135 19.7916C88.5066 19.88 88.4638 19.8938 88.4408 19.8962C88.4029 19.9002 88.372 19.8506 88.3189 19.7179C88.2295 19.4934 88.1455 19.1447 87.8891 19.0449ZM82.572 18.3646C82.6648 18.5173 82.7513 18.6853 82.7513 19.2139C82.7513 19.7425 82.3342 20.6311 82.0051 20.6424C81.6765 20.6537 81.2054 19.965 81.2054 19.1481C81.2054 18.481 81.5006 17.5869 82.3087 17.5869C82.5735 17.5869 82.8436 17.8055 83.0254 18.1121C83.2076 18.4191 83.298 18.8116 83.2862 19.0371C83.2867 19.1162 83.1929 19.1004 83.1713 19.0371C83.127 18.9399 83.0756 18.8461 83.0175 18.7566C82.8957 18.5719 82.7307 18.3842 82.572 18.3646ZM83.1688 29.4773C83.8497 29.4773 84.4053 30.3015 84.4053 31.3115C84.4053 32.322 83.8497 33.1458 83.1688 33.1458C82.488 33.1458 81.9329 32.322 81.9329 31.3115C81.9329 30.302 82.488 29.4773 83.1688 29.4773ZM63.4551 50.9628C63.7725 50.8783 63.4389 52.0288 63.4856 52.2435C64.33 52.0332 65.5792 51.7512 66.235 51.0959C68.2466 49.6031 70.2577 48.6923 72.2693 47.9933C72.7247 47.9078 74.9859 47.5708 74.8026 48.0297C74.5364 48.3165 73.8536 48.5735 73.2051 48.6992C73.1924 50.1479 73.6522 51.8259 74.4264 53.1788C75.8003 56.6184 78.6151 59.9897 81.7742 61.9817C83.4773 63.0555 87.6887 64.7591 91.482 65.6296C94.8784 66.4077 96.637 66.2657 97.5561 66.5821C97.7545 67.2231 95.5401 66.9608 94.1273 66.8611C90.0525 66.5722 83.7691 64.3204 82.066 63.4215C81.4952 64.7763 79.7302 65.8845 78.6677 66.8498C78.4009 67.0925 78.1342 67.3351 77.9593 67.0522C77.6037 66.4774 80.3835 64.6412 80.8266 64.0001H80.8252L81.1725 63.2623C78.2098 61.5592 75.958 58.4173 74.2765 55.5215C73.6271 54.4039 73.2553 52.9877 72.7812 51.7709C72.4295 50.869 72.2016 49.973 72.1244 49.0067C71.1267 49.213 70.3368 49.3638 69.4693 49.9366C68.4402 50.615 67.3207 51.1514 66.321 51.8736V51.8726C65.6411 52.3638 64.3752 52.689 63.5583 52.9376C64.1109 54.3096 64.248 55.4601 63.2685 56.1286C62.9158 56.3934 62.5744 56.2303 62.1942 56.1566C60.3093 55.7921 59.5832 53.7417 57.8359 52.9695C57.5083 52.8968 57.1472 53.055 56.8196 52.9828C55.8985 53.1277 53.7336 51.515 52.8416 51.0954C52.0364 51.3401 48.9348 52.4837 48.2456 51.5174C47.857 51.0001 47.944 50.5629 48.2382 50.1513C48.8395 49.3078 50.3623 48.4904 50.3883 47.3979C49.9123 47.2363 48.865 47.2933 47.6286 47.3311C46.6157 47.3626 45.7285 46.8708 45.6764 46.3835C45.5187 44.9167 48.4372 44.1887 49.7561 43.1085C49.0134 42.0651 47.0362 41.2914 46.1662 40.166C45.5762 39.4031 46.2964 38.6265 47.24 38.567C49.2757 38.4383 52.8931 40.163 53.6099 40.4907C56.0709 41.6156 58.3994 42.9857 60.7917 44.1995C61.3301 43.8134 61.9682 43.3286 62.5066 42.9424C64.0043 41.4638 66.1373 40.6066 67.187 38.683C68.1037 37.0044 70.3319 35.3544 71.9078 34.2584C71.5905 33.1531 71.4372 32.3765 70.8305 31.5227C70.0387 29.6718 69.8137 28.4196 70.8649 26.4409C71.6018 25.0522 72.0635 23.8006 73.3383 22.7518C74.3762 21.8975 75.2163 20.6385 75.9079 19.4939C77.2436 17.2839 77.6877 14.1267 79.8997 12.5783C80.1166 12.428 80.3114 12.2479 80.4783 12.0434C81.1887 11.1783 81.9687 10.7338 82.8505 10.5255C83.4537 10.383 84.0874 10.4641 84.7909 10.4636C85.0566 10.4636 85.4624 10.5736 85.9232 9.98806C87.3969 8.48391 89.9218 7.18312 92.1756 7.25975C94.6259 7.34277 93.9765 9.57543 95.292 10.8914C95.3904 11.0206 95.5158 11.1268 95.6594 11.2027C95.803 11.2785 95.9614 11.3222 96.1236 11.3306C97.0599 11.4008 98.2428 10.7652 98.8274 11.0079C99.0057 11.082 99.0971 11.282 99.0642 11.6666C98.9394 12.0036 98.7915 12.1785 98.6668 12.515L98.6677 12.5159C97.8204 13.9302 96.4621 14.2245 93.9455 14.7997C93.7132 14.9073 94.1621 15.5154 94.1469 15.9236C94.1391 16.1378 93.693 16.297 93.4582 16.3019C94.0801 18.3326 93.2588 20.383 93.9244 22.3519C94.4328 23.8541 95.3298 25.1352 95.7798 26.6561C96.0588 27.5978 96.5265 28.5562 96.5269 29.5387C97.3385 29.5814 98.1726 29.7538 98.9851 29.8413C101.191 30.079 103.075 30.2824 105.418 31.5537C108.452 33.1998 111.485 36.5353 112.034 40.0835C112.154 40.8586 112.476 42.5608 113.171 42.9901C113.528 43.1743 114.239 43.2514 114.956 43.2446C115.63 43.2382 116.307 43.1566 116.699 43.0196C118.207 42.4512 119.58 41.5562 120.995 40.8306C122.476 40.0707 123.776 39.5421 125.506 39.6482C126.329 39.6983 127.107 39.8457 127.082 40.8577C127.047 42.3196 124.443 43.4966 123.511 44.2987C122.548 45.2065 121.468 46.1865 121.066 47.1661C122.065 47.4038 124.583 47.7163 126.69 48.3971C128.491 48.9787 130.001 49.7603 129.912 51.2792C129.852 52.3009 129.063 52.4689 128.095 52.5043C126.378 52.5677 123.952 51.7753 123.237 51.8578C122.936 51.849 122.206 52.0342 121.99 52.1747C122.527 53.5285 125.314 54.6176 125.313 56.1748C125.313 56.9863 124.493 57.114 123.723 57.1401C121.584 57.2138 119.695 55.4247 118.274 54.3425C117.074 53.4283 115.929 54.0104 114.643 54.3002C113.732 54.6706 110.288 54.7261 109.22 54.4452C107.154 55.21 105.756 55.2473 103.541 55.1137C102.849 54.8229 102.467 54.2953 102.478 53.7157C102.503 52.3446 104.144 50.5389 104.873 49.8512C103.882 49.0126 103.121 48.7306 102.767 47.3685C102.574 46.6218 102.905 45.8997 103.249 46.5211C103.298 46.61 103.596 46.6331 103.633 46.7849C103.992 48.1539 104.674 48.4585 105.537 49.3614C105.976 49.1904 105.875 48.709 106.698 48.4845C106.953 48.4462 106.974 48.7252 106.828 48.9949C106.638 49.3422 106.213 49.7166 106.087 49.8173C105.573 50.2279 104.986 50.5236 104.525 51.0945C104.219 51.4732 103.337 52.7293 103.387 53.1861C103.46 53.8454 103.827 54.0708 104.277 54.1848C106.458 54.7404 109.374 53.754 111.724 52.857C112.16 52.69 112.607 52.3368 112.964 52.3781C113.317 52.7597 111.878 53.4794 110.947 53.8174C111.669 54.0178 112.383 54.0974 113.049 53.9534C114.411 53.6577 115.661 52.8997 117.061 52.995C119.176 53.139 120.813 56.3349 123.359 56.5373C123.391 56.5393 123.421 56.5413 123.452 56.5422C123.912 56.5555 124.285 56.389 124.197 55.913C123.896 54.2875 121.063 52.7067 120.616 52.0676C120.367 51.7124 122.783 51.2212 123.131 51.2119C124.614 51.1706 126.259 51.9355 127.626 51.7645C129.953 51.4727 127.902 49.4331 126.789 49.132C125.043 48.6589 122.914 48.0518 121.105 47.7565C121.057 48.2129 121.169 48.8279 120.899 48.9669C120.479 48.9728 120.375 48.2232 120.342 47.4731C120.318 46.9273 121.537 45.4079 121.896 44.9987C122.624 44.1625 123.471 43.4376 124.41 42.8471C124.41 42.519 127.095 41.4501 125.731 40.6921C124.065 39.8113 121.914 41.1396 120.44 41.9163L115.808 44.0993C115.091 44.315 114.82 44.4319 114.12 44.6912C113.487 44.9064 114.08 44.0959 114.116 43.862C113.444 43.8807 112.577 43.9691 111.818 44.0517C110.69 43.5629 111.092 40.8459 110.632 39.6306C109.477 36.6065 107.31 33.6778 104.457 32.1918C103.323 31.6018 102.183 31.0752 100.945 30.836C99.4503 30.5481 97.8459 30.5973 96.3629 30.3983C95.9522 32.9213 95.0636 34.3017 93.4096 36.243C93.1699 36.525 93.159 36.4896 93.0967 36.4331C93.0603 36.3997 92.7975 36.5535 93.021 36.2081C94.2864 34.2579 95.8122 31.9865 95.6776 29.9965C95.5568 28.2163 95.0935 26.9007 94.1951 25.3214C93.724 24.4927 93.4219 23.7406 93.2146 22.9488C92.6487 20.7844 93.5044 18.7016 92.6496 16.4669C92.5229 15.4864 91.7266 14.5835 91.5291 14.0039C91.4417 13.747 91.7045 13.5913 91.9079 13.8383C92.2994 14.3134 92.5701 14.9775 92.9616 15.4525C92.9463 14.9549 93.0411 14.4195 93.3963 14.3281C93.6945 14.2515 94.1464 14.2711 94.4913 14.1051C94.8337 14.1915 98.4039 12.8962 98.2148 11.8931C98.1372 11.4804 96.693 12.1421 96.3629 12.1853V12.1863C96.3099 12.1903 96.2568 12.1922 96.2037 12.1922C93.4729 12.1908 94.0305 8.43331 91.9619 8.27464C91.6013 8.24713 91.1838 8.19457 90.7088 8.34833C87.949 8.4844 86.6114 11.4367 84.3075 11.3124C83.2504 11.2554 81.9766 11.4598 81.2407 12.3357C80.8871 12.7567 80.4312 13.3083 79.9807 13.6237C79.0597 14.2677 78.5316 15.9177 77.9529 17.0112C77.1566 19.0494 75.8883 21.1012 74.4372 22.7292C73.8143 23.4272 72.8028 24.1842 72.4162 25.0345C71.7437 26.5141 70.7912 27.6946 71.111 29.4026C71.3173 30.5044 72.2369 32.5868 72.7232 33.4258C72.9045 33.7392 73.3766 34.5065 73.8207 35.204C74.2132 35.8191 74.6656 36.4199 74.2687 36.7053C74.0899 36.834 73.2277 35.373 72.3494 34.789C71.2495 35.5602 70.3074 36.3968 69.2684 37.2255C68.1391 38.1259 67.6601 39.4542 66.6074 40.4656C65.8204 41.2202 65.0006 41.9104 64.0933 42.5151C63.1943 43.1139 62.4196 44.0399 61.4971 44.5959C61.7226 44.6898 63.0602 44.9673 62.8843 45.3244C62.6638 45.7724 61.4868 45.4561 60.8708 45.2596C59.8932 44.9477 58.8818 44.4584 58.3694 44.0742C57.7721 43.751 52.5011 40.8424 52.1971 40.6946C50.7288 39.9808 48.7118 39.3142 47.7185 39.2852C47.3869 39.2749 47.1546 39.2926 47.0691 39.5058C47.0182 39.5592 46.9846 39.6268 46.9729 39.6997C46.9611 39.7725 46.9717 39.8473 47.0033 39.914C47.2582 40.528 48.9259 41.3386 49.6883 41.9791C50.071 42.3009 51.7456 43.6282 51.5997 44.5247C51.5324 44.9378 50.4104 43.9554 50.0646 43.5516C49.4938 43.8935 48.812 44.3449 48.2446 44.6932V44.6917C48.0525 44.8101 46.5567 45.7155 46.6869 45.9095C46.6255 47.2535 49.7537 46.6272 50.743 46.8099C51.3885 46.9288 52.8769 48.1073 52.4663 48.4393C52.3577 48.517 52.1971 48.3406 52.0222 48.2463C51.6371 48.04 51.1841 47.7128 51.0731 47.6917C50.7027 48.4222 49.9949 49.4842 49.3622 49.9916C49.3351 50.0137 48.9854 50.2883 48.9986 50.3139L49.006 50.4627C48.9024 50.8773 49.0743 51.067 49.3838 51.123C50.0646 51.2458 51.6086 50.7879 52.1504 50.5944C51.7854 50.1935 51.8075 49.3614 52.1543 49.5343C52.8018 49.8566 55.1042 51.6604 55.9638 52.1879C56.1603 51.9011 56.1417 51.5626 56.3647 51.4703C57.0337 51.1932 57.8964 52.0755 58.5954 52.3844C60.1172 53.0569 60.4606 54.1573 61.6906 55.096C62.0266 55.352 62.5518 55.3137 62.9516 55.4041C63.5956 54.5154 62.9531 53.8007 62.7763 52.9179C62.6024 52.242 63.209 51.0291 63.4551 50.9628ZM81.6883 16.4915C81.6229 16.858 81.4647 17.0078 81.2697 17.0373C81.0944 17.0633 80.9327 16.8639 80.9735 16.5092C81.0565 15.7822 81.9236 15.0134 82.4752 14.7766C82.7262 14.6685 82.9227 14.6641 82.9291 14.8208C82.935 14.9706 81.7845 15.5252 81.7354 16.1191C81.7192 16.2429 81.704 16.3672 81.6883 16.4915ZM87.3202 14.9918C87.4711 14.8336 87.6484 14.9736 87.8341 15.0085C88.6397 15.1603 89.6118 16.6182 89.3314 16.9326C89.1972 17.0098 88.6417 16.5672 88.147 16.0838C87.6513 15.5999 87.1238 15.1681 87.3202 14.9918Z" fill="black"/>
<path d="M115.677 41.7571L111.247 32.8476L65.6306 56.3168L69.9156 65.3746L115.677 41.7571Z" fill="#C4C4C4"/>
</g>
<defs>
<clipPath id="clip0_2063_28504">
<rect width="84.3441" height="74" fill="white" transform="translate(45.6344 7)"/>
</clipPath>
</defs>
</svg>
