<svg width="176" height="88" viewBox="0 0 176 88" fill="none" xmlns="http://www.w3.org/2000/svg">
<g clip-path="url(#clip0_2063_28588)">
<path d="M149.514 63.8108H148.26V56.1119C148.26 54.0122 147.385 52.102 145.971 50.7314L140.692 45.1176C140.619 45.0447 140.546 44.9573 140.473 44.8843V44.8698C139.424 43.8637 138.097 43.1346 136.609 42.8284V40.4808C136.609 39.3435 136.26 38.3082 135.647 37.4479C136.26 36.3835 136.609 35.1733 136.609 33.9339C136.609 31.9362 135.764 30.0698 134.247 28.6992C134.247 28.6992 129.056 23.1146 128.736 22.823C127.292 21.5253 125.396 20.8108 123.355 20.8108H108.511C106.149 20.8108 104.079 22.1522 102.927 24.1499C102.591 23.6687 102.183 23.2021 101.717 22.7938C100.259 21.5107 98.3192 20.8108 96.2778 20.8108H74.9018V22.7063C73.5166 21.3211 71.5773 20.4608 69.4193 20.4608C65.4969 20.4608 62.2453 23.3333 61.8516 26.9932L58.8333 26.1038L62.6244 21.9627L57.1419 21.2774L61.5891 14.3221L53.205 17.6175L52.7967 12.8786L47.5912 15.7657L45.3019 9L41.2629 15.999L36.9177 13.4618L35.1534 18.2591L27.542 15.6199L30.0937 22.2397L24.3342 23.3771L26.9296 27.3432L18.3996 30.4344L26.1568 32.709L22.3657 36.8501L27.8482 37.55L24.3633 42.9888C23.6489 42.7409 22.9052 42.5951 22.1324 42.5951C18.2101 42.5951 15.0022 45.9779 15.0022 50.1336V72.9678L20.5139 78.9023H76.3307V76.4672C77.7451 78.1732 79.9031 79.2523 82.3236 79.2523C85.1378 79.2523 87.602 77.7796 88.9435 75.5632L92.0639 78.8877H100.492C101.892 78.7711 103.218 78.2899 104.341 77.5171L105.624 78.8877H121.051V76.5985C122.466 78.2316 124.58 79.2668 126.942 79.2668C129.873 79.2668 132.425 77.6775 133.737 75.3153C135.049 77.6629 137.601 79.2668 140.532 79.2668C142.311 79.2668 143.944 78.6836 145.242 77.6921L146.379 78.8731H155.026V69.6724L149.514 63.8108Z" fill="#171112"/>
<path d="M44.8791 12.2374L44.3979 13.0685L42.444 16.4951C42.444 16.4951 41.9191 17.3845 41.6275 17.8949C41.0151 17.5449 37.5447 15.489 37.5447 15.489C37.5447 15.489 36.1595 19.2801 35.8825 20.0091C35.168 19.7613 29.9625 17.9678 29.9625 17.9678C29.9625 17.9678 31.6831 22.4005 31.9747 23.1733C31.0707 23.3482 26.6088 24.2523 26.6088 24.2523C26.6088 24.2523 28.5773 27.2706 29.0147 27.9267C28.1107 28.2621 22.6282 30.2597 22.6282 30.2597C22.6282 30.2597 27.6441 31.7179 28.5044 31.9657C27.8482 32.6802 24.9612 35.8298 24.9612 35.8298C24.9612 35.8298 29.1606 36.3693 30.0063 36.4859C29.4959 37.2879 26.5068 41.9539 26.5068 41.9539C26.5068 41.9539 32.2226 39.7229 33.0246 39.4167C33.0829 40.1458 33.3891 43.9077 33.3891 43.9077C33.3891 43.9077 37.5593 41.5893 38.2592 41.2102C38.4779 41.8664 40.0965 46.6344 40.0965 46.6344C40.0965 46.6344 42.9252 41.706 43.3481 40.9915C43.9605 41.3415 47.4454 43.3682 47.4454 43.3682C47.4454 43.3682 48.816 39.6063 49.0931 38.8626C49.8075 39.1105 55.013 40.904 55.013 40.904C55.013 40.904 53.2925 36.4713 53.0008 35.6985C53.9049 35.5236 58.3667 34.6195 58.3667 34.6195C58.3667 34.6195 56.3982 31.6158 55.9608 30.9451C56.8648 30.6097 62.3474 28.6121 62.3474 28.6121C62.3474 28.6121 57.346 27.1539 56.4857 26.9061C57.1419 26.1916 60.0144 23.042 60.0144 23.042C60.0144 23.042 55.815 22.5025 54.9693 22.3859C55.4796 21.5839 58.4834 16.9179 58.4834 16.9179C58.4834 16.9179 52.7675 19.1197 51.9801 19.4405C51.9218 18.7114 51.5864 14.9495 51.5864 14.9495C51.5864 14.9495 47.4162 17.2679 46.7163 17.647C46.483 16.9908 44.8791 12.2374 44.8791 12.2374Z" fill="white"/>
<path d="M64.2868 70.9849H68.9382V44.9721H64.2868V70.9849ZM29.9772 44.6075C28.417 44.6075 27.0172 45.322 26.0549 46.4594C25.0925 45.322 23.6927 44.6075 22.1325 44.6075C19.2309 44.6075 16.8833 47.0718 16.8833 50.1338V70.9849H21.5347V50.1338H23.7219V70.9849H28.3733V50.1338H30.5605V70.9849H35.2119V50.1338C35.2119 47.0864 32.8643 44.6075 29.9772 44.6075ZM44.1502 60.5302H41.788V50.1484H44.1502V60.5302ZM42.9691 44.6221H42.8233L39.8195 49.8276L38.6676 46.4156C37.7198 47.3926 37.1366 48.7049 37.1366 50.1338V70.9704H41.788V65.4732H44.1502V70.9704H48.8016V50.1484C48.8016 47.1009 46.1915 44.6221 42.9691 44.6221ZM94.3824 45.0158L88.4479 45.0012V70.9995H93.0993V50.1921H95.4468V55.558H94.2658V60.5156H95.4468V65.8524H94.2658V70.9995C97.532 70.9995 100.098 68.7249 100.098 65.8669V60.5156C100.098 59.32 99.4713 58.241 98.4943 57.5265C99.4713 56.7974 100.098 55.733 100.098 54.5373V50.2067C100.098 47.3342 97.532 45.0158 94.3824 45.0158ZM56.6463 44.9867L50.7117 44.9721V70.9995H55.3777V50.163H57.7253V55.5289H56.5442V60.4865H57.7253V70.9849H62.3767V60.4865C62.3767 59.2908 61.7497 58.2118 60.7582 57.4827C61.7351 56.7537 62.3621 55.6893 62.3767 54.4936V50.163C62.3767 47.3051 59.8104 44.9867 56.6463 44.9867ZM78.0077 65.8378H75.6456V50.1776H78.0077V65.8378ZM76.8121 44.6513C73.5896 44.6513 70.9796 47.1155 70.9796 50.1776V65.8378C70.9796 68.8998 73.5896 71.3641 76.8121 71.3641C80.0345 71.3641 82.6445 68.8998 82.6445 65.8378V50.1776C82.6591 47.1301 80.0345 44.6513 76.8121 44.6513ZM135.02 44.6804C131.798 44.6804 129.188 47.1447 129.188 50.2067V54.8581C129.188 57.8181 130.296 58.6784 133.679 59.772C136.128 60.574 136.201 60.9531 136.201 62.28V65.8669H133.839V60.6469H129.188V65.8669C129.188 68.929 131.798 71.4078 135.02 71.4078C138.243 71.4078 140.853 68.9436 140.853 65.8815V61.2593C140.853 58.2993 139.745 57.4536 136.362 56.3454C133.912 55.5435 133.839 55.4705 133.839 53.8229V50.2359H136.201V55.4851H140.853V50.2359C140.853 47.1738 138.243 44.695 135.02 44.6804ZM142.763 65.8232V70.9849H147.618V65.8232H142.763ZM122.612 65.8669H120.249V50.2067H122.612V65.8669ZM127.263 50.2067C127.263 47.1447 124.653 44.6804 121.431 44.6804C118.208 44.6804 115.598 47.1447 115.598 50.2067V65.8669C115.598 68.9144 118.208 71.3932 121.431 71.4078C124.653 71.4078 127.263 68.9436 127.263 65.8815V50.2067ZM107.943 45.0158L102.008 45.0012V70.9849H106.66V50.1921H109.007V55.558H107.826V60.5156H109.007V70.9995H113.659V60.5302C113.659 59.3346 113.032 58.2556 112.055 57.5265C113.032 56.7974 113.659 55.733 113.659 54.5373V50.2067C113.659 47.3488 111.092 45.0304 107.943 45.0158ZM96.2634 22.8232H90.3288V38.7313H95.0677V27.5767H96.4092V33.2488C99.69 33.1905 102.256 30.8866 102.256 28.0433C102.256 25.1562 99.6171 22.8378 96.2634 22.8232ZM122.16 27.5767H123.545V38.7459H129.188V34.6048C129.188 33.4238 128.605 32.3885 127.467 31.7615C128.532 30.8137 129.188 29.5014 129.188 28.0579C129.188 25.1854 126.621 22.8524 123.341 22.8524H117.508V38.7459H122.16V27.5767ZM75.1206 33.7591V33.4821C75.1206 31.0324 73.0355 29.0348 70.4692 29.0348H68.3404V27.7663H75.1206C75.1206 24.85 72.5544 22.4879 69.4048 22.4879C66.2553 22.4879 63.689 24.8354 63.689 27.7517V28.0725C63.7181 30.5075 65.7887 32.476 68.3404 32.476H70.4692V33.7737H63.689C63.689 36.6754 66.2553 39.0375 69.4048 39.0375C72.5689 39.0084 75.1206 36.6608 75.1206 33.7591ZM109.78 32.6218H115.321V28.9473H109.78V32.6218ZM83.3736 22.8086V33.9924H81.8572V22.8086H76.7829V33.9924C76.7829 36.7337 79.3929 38.95 82.6154 38.95C85.8378 38.95 88.4479 36.7337 88.4479 34.007V22.8086H83.3736ZM103.86 27.7954V33.4092C103.86 36.3546 105.945 38.7313 108.512 38.7313H115.321V34.3132H108.512V27.2413H115.321V22.8378H108.512C105.945 22.8378 103.86 25.0541 103.86 27.7954Z" fill="white"/>
<path d="M158.117 74.7178C159.167 74.7178 160.012 75.5781 160.012 76.628C160.012 77.6924 159.181 78.5381 158.117 78.5381C157.067 78.5381 156.207 77.6924 156.207 76.628C156.207 75.5781 157.052 74.7178 158.117 74.7178ZM158.102 75.0969C157.3 75.0969 156.659 75.7823 156.659 76.628C156.659 77.4883 157.3 78.159 158.102 78.159C158.904 78.1736 159.56 77.4883 159.56 76.628C159.56 75.7823 158.904 75.0969 158.102 75.0969ZM157.781 77.7361H157.329V75.6219C157.504 75.5927 157.679 75.5635 158 75.5635C158.365 75.5635 158.583 75.6219 158.729 75.7385C158.846 75.826 158.919 75.9718 158.919 76.1905C158.919 76.4384 158.744 76.628 158.51 76.6863V76.7009C158.7 76.73 158.817 76.905 158.846 77.2112C158.89 77.5466 158.933 77.6632 158.963 77.7361H158.496C158.452 77.6632 158.408 77.4737 158.365 77.1821C158.336 76.9488 158.19 76.8613 157.971 76.8613H157.767V77.7361H157.781ZM157.781 76.5113H158C158.263 76.5113 158.467 76.4238 158.467 76.2051C158.467 76.0301 158.336 75.8989 158.029 75.8989C157.913 75.8989 157.84 75.8989 157.781 75.9135V76.5113Z" fill="#171112"/>
<path d="M42.0942 18.5946C42.0942 18.5946 44.0772 15.1535 44.6168 14.2057C44.9959 15.343 46.1769 18.7988 46.1769 18.7988C46.1769 18.7988 50.0118 16.6699 50.8429 16.2179C50.9158 17.0344 51.222 20.5485 51.222 20.5485C51.222 20.5485 55.1881 18.9883 56.5879 18.4488C55.8005 19.6882 53.6571 23.0273 53.6571 23.0273C53.6571 23.0273 57.4482 23.5085 58.4397 23.6397C57.7107 24.4417 55.0569 27.3434 55.0569 27.3434C55.0569 27.3434 58.4106 28.3203 59.7958 28.7286C58.2939 29.2681 54.6924 30.5804 54.6924 30.5804C54.6924 30.5804 56.5004 33.3362 56.9816 34.0945C55.9463 34.2986 51.849 35.1151 51.849 35.1151C51.849 35.1151 53.0738 38.2938 53.5404 39.4895C52.2573 39.0521 48.6557 37.7981 48.6557 37.7981C48.6557 37.7981 47.3726 41.2976 47.0664 42.1287C46.3665 41.7204 43.144 39.8249 43.144 39.8249C43.144 39.8249 41.0444 43.4702 40.359 44.6512C39.9799 43.5285 38.7988 40.0582 38.7988 40.0582C38.7988 40.0582 34.964 42.1724 34.1329 42.639C34.06 41.8225 33.7537 38.3084 33.7537 38.3084C33.7537 38.3084 29.8022 39.854 28.3879 40.4081C29.1898 39.1687 31.3187 35.8296 31.3187 35.8296C31.3187 35.8296 27.5276 35.3484 26.5361 35.2172C27.2651 34.4152 29.9189 31.5136 29.9189 31.5136C29.9189 31.5136 26.5652 30.5366 25.1946 30.1284C26.6964 29.5889 30.298 28.2766 30.298 28.2766C30.298 28.2766 28.5045 25.4915 28.0088 24.7479C29.044 24.5438 33.1413 23.7272 33.1413 23.7272C33.1413 23.7272 31.9165 20.5485 31.4499 19.3529C32.7331 19.7903 36.32 21.0443 36.32 21.0443C36.32 21.0443 37.6032 17.5448 37.9094 16.7137C38.6093 17.1219 41.8463 19.0175 41.8463 19.0175L42.0942 18.5946Z" fill="#FFCB05"/>
<path d="M43.3044 29.0349L41.5109 29.239L41.5255 29.1807L41.8171 28.2766L43.6106 28.0725L43.3044 29.0349ZM44.3688 26.2936L42.1816 26.5415C41.2047 26.6435 40.1694 27.4601 39.8924 28.335L38.6238 32.3594C38.3468 33.2343 38.9154 33.8612 39.907 33.7592C39.907 33.7592 43.6106 33.3509 43.7272 33.3363C43.7564 33.2488 44.2521 31.6595 44.2959 31.572C44.1792 31.5866 40.6798 31.9803 40.6798 31.9803L40.986 31.0325L42.969 30.8138C43.9459 30.6971 44.9812 29.8952 45.2583 29.0203L45.6665 27.7226C45.929 26.8039 45.3457 26.1769 44.3688 26.2936ZM37.9822 24.6897C37.9531 24.7917 36.0575 30.7263 36.0575 30.7263C36.0575 30.7263 35.2701 25.0396 35.241 24.9959C35.1826 24.9959 33.3308 25.2 33.2288 25.2146C33.1996 25.3167 30.2396 34.6486 30.2104 34.7507C30.3125 34.7361 32.0768 34.5466 32.1935 34.532C32.2227 34.4299 34.1036 28.5391 34.1036 28.5391L34.9493 34.2258C35.0514 34.2112 36.8157 34.0216 36.9324 34.0071C36.9615 33.905 39.9215 24.573 39.9507 24.4709C39.8632 24.4855 38.0989 24.6751 37.9822 24.6897ZM53.1029 25.3021C53.0738 25.4041 51.8635 29.2098 51.8635 29.2098C51.6886 29.7348 51.3386 30.3326 50.77 31.0471L50.6825 31.1491L50.6533 31.0617C50.5075 30.4347 50.5221 29.866 50.6825 29.3411C50.6825 29.3411 51.9219 25.4625 51.9219 25.4333C51.8198 25.4479 50.143 25.6374 50.0409 25.6374C50.0409 25.652 48.8015 29.5452 48.8015 29.5452C48.6265 30.0701 48.2766 30.668 47.7079 31.3824L47.6204 31.4845L47.6058 31.397C47.46 30.77 47.4746 30.2014 47.635 29.6764C47.635 29.6764 48.8306 25.8999 48.8598 25.7978C48.7577 25.8124 47.0809 25.9874 46.9788 26.002C46.9497 26.104 45.754 29.8806 45.754 29.8806C45.2728 31.3824 45.8561 32.5052 46.0456 32.8697C46.0456 32.8697 46.1185 32.9572 46.1477 32.9864C46.1915 32.9864 48.2474 32.7531 48.2474 32.7531H48.2328H48.2766C48.3057 32.7093 48.3786 32.6218 48.3786 32.6218L48.8161 32.1844L48.889 32.1115L48.9181 32.1698L49.0931 32.5344C49.0931 32.5344 49.1514 32.6218 49.1806 32.651C49.2098 32.651 51.3095 32.4177 51.3386 32.4177C51.3678 32.374 51.4407 32.2865 51.4407 32.2865C51.8927 31.8345 53.2488 30.5076 53.7299 28.9911C53.7299 28.9911 54.9402 25.1854 54.9693 25.0834C54.8819 25.0979 53.205 25.2875 53.1029 25.3021Z" fill="#171112"/>
</g>
<defs>
<clipPath id="clip0_2063_28588">
<rect width="145" height="70.296" fill="white" transform="translate(15 9)"/>
</clipPath>
</defs>
</svg>
