<svg width="148" height="32" viewBox="0 0 148 32" fill="none" xmlns="http://www.w3.org/2000/svg">
<path d="M28.2764 23V10.7608H35.9871V12.4743H30.1647V15.9887H35.4975V17.7022H30.1647V21.2865H36.0745V23H28.2764ZM37.4187 23V10.7608H39.307V21.2865H45.1993V23H37.4187ZM46.3049 23V10.7608H54.0155V12.4743H48.1932V15.9887H53.526V17.7022H48.1932V21.2865H54.103V23H46.3049ZM55.4472 23V10.7608H59.0839L62.406 21.7411H62.6858V10.7608H64.5566V23H60.9198L57.5978 12.0022H57.318V23H55.4472ZM65.5756 23L69.0725 10.7608H72.3945L75.874 23H73.9332L73.1289 20.1151H68.3381L67.5338 23H65.5756ZM68.8102 18.3666H72.6568L70.8734 11.9323H70.5936L68.8102 18.3666ZM80.5178 23V10.7608H88.0711V12.4743H82.4061V16.0062H87.6165V17.7197H82.4061V23H80.5178ZM89.1062 23.2448C88.6982 23.2448 88.3543 23.1107 88.0746 22.8426C87.8065 22.5745 87.6724 22.2307 87.6724 21.8111C87.6724 21.3914 87.8065 21.0534 88.0746 20.7969C88.3543 20.5289 88.6982 20.3948 89.1062 20.3948C89.5141 20.3948 89.8522 20.5289 90.1203 20.7969C90.4 21.065 90.5399 21.4031 90.5399 21.8111C90.5399 22.2307 90.4 22.5745 90.1203 22.8426C89.8522 23.1107 89.5141 23.2448 89.1062 23.2448Z" fill="#333333"/>
<path d="M21.5747 17.8887H20.2312V16.4269C18.9192 16.3718 19.3544 16.7793 19.2819 15.3513H18.0961V13.9661C16.6801 14.2481 17.5126 13.3471 17.1752 13.2092C16.4246 12.9058 15.8475 13.8742 16.0398 12.4277H7.97257C7.92841 12.4277 7.88426 13.2643 7.88426 13.2643C7.88426 13.2643 6.97914 13.2031 6.94129 13.2306C6.58176 14.1837 7.50266 13.9324 5.75864 13.9661C5.75548 14.0918 5.76494 15.2624 5.75864 15.3513H4.65167C4.57914 16.7916 5.02382 16.3687 3.62355 16.4269V17.8887H2.43774V20.4261H3.78124C3.49425 18.8203 4.42145 19.6569 4.65167 19.4271C4.73367 19.3474 4.65483 17.9653 4.73052 17.9653C4.84405 17.8918 19.1715 18.1093 19.2062 17.8887V19.3106C19.2062 19.5252 20.187 19.3781 20.2343 19.424C20.269 19.4608 20.2059 20.2698 20.2343 20.4231H21.499C21.6283 20.4231 21.5242 18.0879 21.5778 17.8856L21.5747 17.8887ZM10.9718 16.7487H7.97572V15.4953H10.9718V16.7487ZM16.0335 16.7487H13.0375V15.4953H16.0335V16.7487Z" fill="#333333"/>
<path d="M6.94444 19.6564V21.348C8.39201 21.4123 7.88426 20.8822 7.97256 22.963C6.54707 22.8986 6.90975 23.2755 6.8656 22.1938H4.65167C4.62959 22.3255 4.68321 22.9323 4.65167 22.963C4.62013 22.9936 3.70239 23.0089 3.70239 22.963V21.348H5.67979V19.5797C7.19674 19.5123 6.82145 19.8985 6.8656 18.8105H9.27821C9.37283 18.8105 9.59359 19.5797 9.19937 19.5797H7.14313C7.11474 19.5797 7.02013 19.6778 6.94444 19.6564Z" fill="#333333"/>
<path d="M18.1751 21.3486H20.2314V22.9636C20.2314 23.0096 19.3168 22.9973 19.2821 22.9636C19.2474 22.9299 19.3042 22.3262 19.2821 22.1944H17.2258C17.1817 23.2823 17.5727 22.8931 15.9612 22.9636V21.3486H17.147V18.8112C17.2889 18.8296 18.1751 18.7376 18.1751 18.9276V21.3486Z" fill="#333333"/>
<path d="M3.64312 6.05481C3.69042 6.10078 3.5832 6.88836 3.65889 7.07529C3.78819 7.4032 4.33379 7.23771 4.42209 7.37255C4.4694 8.32255 4.56086 7.96707 3.93642 8.0682C3.27098 8.38078 3.69042 9.08868 3.64312 9.12546C3.59581 9.16223 2.95876 9.14997 2.93037 9.12546C2.83891 9.04578 3.30567 8.41755 2.61815 8.08352C2.47308 8.01304 2.08517 8.07126 2.05994 8.04981C2.03471 8.02836 2.03471 7.38175 2.05994 7.35723C2.08517 7.33271 2.74745 7.41239 2.89253 7.12739C3.0376 6.84239 2.87991 6.10078 2.93037 6.05175C2.98083 6.00271 3.61789 6.02723 3.64312 6.05175V6.05481Z" fill="#333333"/>
<path d="M21.0792 6.05515C21.1202 6.09499 21.0319 6.82128 21.0949 6.99902C21.2274 7.36983 21.8045 7.21967 21.9181 7.35757C21.9181 8.62322 21.855 7.6916 21.199 8.20644C20.9814 8.4608 21.1265 9.08596 21.0792 9.12886C21.0319 9.17176 20.4673 9.15031 20.4453 9.12886C20.4453 8.32902 20.5809 8.00725 19.5748 8.05322C19.5496 8.0287 19.5496 7.38515 19.5748 7.36063C19.6001 7.33612 20.2623 7.4158 20.4074 7.1308C20.5178 6.91322 20.3948 6.10112 20.4453 6.05515C20.4673 6.0337 21.0571 6.0337 21.0792 6.05515Z" fill="#333333"/>
<path d="M1.56429 10.6677C1.56429 11.4676 1.42868 11.7893 2.43472 11.7434C2.45995 11.7679 2.4568 12.4084 2.43472 12.4359C0.816851 12.3226 2.36219 14.0693 1.12907 13.7445C0.71593 13.6158 1.13853 12.8987 0.861002 12.5647C0.583473 12.2306 -0.214424 12.5616 0.0694132 11.8721C0.176641 11.6147 0.633933 11.8966 0.89254 11.5932C1.18584 11.2469 0.89254 10.7014 0.933539 10.6739C0.974538 10.6463 1.54537 10.6493 1.56744 10.6739L1.56429 10.6677Z" fill="#333333"/>
<path d="M23.9496 12.4328C22.7512 12.2949 23.1611 13.3767 23.0791 13.7413C23.0571 13.7628 22.4673 13.7628 22.4452 13.7413C22.3979 13.6954 22.5115 12.8894 22.4042 12.6657C22.1898 12.2152 21.5811 12.7607 21.6505 12.0865C21.7136 11.4521 22.0889 11.9609 22.4011 11.587C22.6502 11.2836 22.4105 10.6983 22.4452 10.6676C23.4071 10.496 22.9467 10.8699 23.1201 11.5104C23.2873 11.872 23.7793 11.6605 23.9149 11.8168C24.0505 11.9731 23.9717 12.4175 23.9464 12.4359L23.9496 12.4328Z" fill="#333333"/>
<path d="M12.9557 19.5798H10.3444C10.3791 19.3776 10.234 18.9394 10.4737 18.8229C10.5872 18.7677 12.8453 18.7892 12.9178 18.8842C13.0124 19.0037 12.9241 19.4113 12.9525 19.5798H12.9557Z" fill="#333333"/>
<path d="M16.04 19.5798H13.9049C13.9333 19.4082 13.845 19.0037 13.9396 18.8841C14.0342 18.7646 16.7086 18.4704 16.04 19.5798Z" fill="#333333"/>
</svg>
