<svg width="176" height="88" viewBox="0 0 176 88" fill="none" xmlns="http://www.w3.org/2000/svg">
<g clip-path="url(#clip0_2063_28590)">
<path d="M67.6241 13.736H108.194C114.759 13.736 120.082 18.7377 120.082 24.9076V63.0308C120.082 69.2008 114.76 74.2025 108.194 74.2025H67.6241C61.0582 74.2025 55.7358 69.2008 55.7358 63.0308V24.9076C55.7358 18.7377 61.0582 13.736 67.6241 13.736Z" fill="#FFA500"/>
<path d="M108.194 74.9382H67.6242C60.6633 74.9382 55.0002 69.5968 55.0002 63.0311V24.9079C55.0002 18.3422 60.6631 13.0008 67.6242 13.0008H108.194C115.154 13.0008 120.818 18.3422 120.818 24.9079V63.0311C120.818 69.5968 115.154 74.9382 108.194 74.9382ZM67.6242 14.4719C61.4744 14.4719 56.4711 19.1533 56.4711 24.9079V63.0311C56.4711 68.7855 61.4744 73.4671 67.6242 73.4671H108.194C114.344 73.4671 119.347 68.7855 119.347 63.0311V24.9079C119.347 19.1535 114.344 14.4719 108.194 14.4719H67.6242Z" fill="black"/>
<path d="M78.4542 23.9719L90.6713 24.0008C93.2245 23.9816 95.1312 24.3892 96.3904 25.2236C97.9284 26.2464 98.6971 28.0061 98.6971 30.5029C98.6971 34.6138 96.7904 36.9427 92.9776 37.4892V37.5468C94.659 37.9657 95.5089 39.3578 95.5279 41.7233C95.5279 42.9348 95.4827 44.4868 95.3921 46.3792C95.3921 47.6484 95.6606 48.7464 96.1983 49.6734H89.5038C89.1913 49.3344 89.0351 48.6442 89.0351 47.602C89.1631 45.8599 89.2272 44.4307 89.2272 43.315C89.2272 41.0613 88.1443 39.9346 85.9785 39.9346H81.6466L79.7575 49.05H73.2366L78.4542 23.9719ZM88.7819 29.1985H83.9816L82.7297 35.2497H87.9241C90.8277 35.2497 92.2885 34.1039 92.3075 31.8118C92.3077 30.0697 91.1322 29.1985 88.7819 29.1985Z" fill="black"/>
<path d="M97.0846 49.6447L101.918 41.2678L103.221 49.7025H111.467L104.028 55.0441L105.219 63.421L98.7773 58.3673L90.1185 63.6226L94.1688 54.7038L89.4482 49.621L97.0846 49.6447ZM119.117 71.7387C119.384 71.7387 119.646 71.809 119.901 71.9494C120.156 72.0897 120.354 72.2909 120.496 72.5524C120.639 72.8139 120.71 73.0864 120.71 73.3703C120.71 73.6514 120.64 73.9214 120.499 74.1806C120.365 74.4342 120.16 74.6439 119.91 74.7847C119.657 74.9283 119.393 74.9997 119.116 74.9997C118.841 74.9997 118.576 74.9279 118.323 74.7847C118.073 74.6438 117.868 74.4342 117.733 74.1806C117.592 73.9214 117.521 73.651 117.521 73.3703C117.521 73.0864 117.593 72.8139 117.736 72.5524C117.879 72.2909 118.078 72.0899 118.333 71.9494C118.588 71.8088 118.849 71.7387 119.117 71.7387ZM119.117 72.0086C118.893 72.0086 118.675 72.0674 118.463 72.1849C118.252 72.3013 118.079 72.476 117.965 72.6882C117.845 72.9066 117.786 73.1338 117.786 73.3699C117.786 73.6048 117.845 73.83 117.962 74.0454C118.076 74.2565 118.247 74.4311 118.455 74.549C118.666 74.6691 118.887 74.7294 119.117 74.7294C119.346 74.7294 119.567 74.6691 119.778 74.549C119.987 74.4313 120.157 74.2566 120.27 74.0454C120.387 73.83 120.445 73.605 120.445 73.3699C120.445 73.1336 120.386 72.9066 120.267 72.6882C120.154 72.4756 119.981 72.3008 119.769 72.1849C119.557 72.0674 119.339 72.0086 119.117 72.0086ZM118.418 74.2714V72.5167H119.007C119.209 72.5167 119.354 72.5328 119.444 72.5652C119.535 72.5976 119.606 72.6542 119.66 72.7349C119.713 72.8156 119.74 72.9012 119.74 72.992C119.74 73.1202 119.695 73.2319 119.606 73.3268C119.517 73.4219 119.398 73.475 119.25 73.4867C119.31 73.5129 119.359 73.5437 119.395 73.5798C119.465 73.6488 119.549 73.7649 119.649 73.9274L119.858 74.2712H119.52L119.368 73.9946C119.249 73.7773 119.152 73.6409 119.079 73.5862C119.028 73.5456 118.954 73.5255 118.857 73.5255H118.694V74.2712H118.418V74.2714ZM118.694 73.2836H119.03C119.191 73.2836 119.3 73.2591 119.359 73.2098C119.417 73.1613 119.446 73.0961 119.446 73.0154C119.447 72.9658 119.432 72.9171 119.404 72.8762C119.375 72.8345 119.334 72.8025 119.287 72.7844C119.237 72.7644 119.145 72.7539 119.009 72.7539H118.694V73.2836Z" fill="black"/>
<path d="M102.72 54.4444L107.661 50.9249H102.194L101.248 44.8209L97.7784 50.8674H92.2559L95.6124 54.4733L92.8373 60.5247L98.8613 56.8902L103.61 60.6111L102.72 54.4444Z" fill="white"/>
</g>
<defs>
<clipPath id="clip0_2063_28590">
<rect width="65.8174" height="62" fill="white" transform="translate(55 13)"/>
</clipPath>
</defs>
</svg>
