<svg width="176" height="88" viewBox="0 0 176 88" fill="none" xmlns="http://www.w3.org/2000/svg">
<path d="M23.4394 65.5533C9.72065 65.5485 0.553955 55.8265 0.553955 44.0386C0.553955 32.251 9.7415 22.4173 23.4186 22.4473H152.664C166.341 22.4173 175.529 32.251 175.529 44.0389C175.529 55.8265 166.362 65.5485 152.643 65.5533H23.4394ZM159.547 35.3299C160.534 35.3299 161.025 35.6644 161.025 36.3264C161.025 36.7819 160.741 37.1261 160.269 37.2443L161.043 38.7897H160.107L159.444 37.3721H159.033V38.7897H158.19V35.3299H159.547ZM159.47 33.9772C157.746 33.9772 156.347 35.3763 156.347 37.1004C156.347 38.8246 157.746 40.2233 159.47 40.2233C161.194 40.2233 162.593 38.8246 162.593 37.1004C162.593 35.3763 161.194 33.9772 159.47 33.9772ZM161.996 37.1025C161.996 38.4968 160.864 39.6284 159.47 39.6284C158.076 39.6284 156.944 38.4968 156.944 37.1028C156.944 35.7088 158.076 34.577 159.47 34.577C160.14 34.577 160.782 34.8431 161.256 35.3167C161.729 35.7903 161.996 36.4327 161.996 37.1025ZM159.033 36.8657H159.444C159.926 36.8657 160.158 36.7194 160.158 36.3753C160.158 36.0151 159.909 35.8592 159.403 35.8592H159.033V36.8657ZM88.4504 45.3215C88.4408 44.1387 88.4665 43.3486 88.8547 42.6747C89.3311 41.8429 90.207 41.4478 91.0015 41.4434H90.9992C91.7941 41.4478 92.67 41.8429 93.1464 42.6747C93.5342 43.351 93.5506 44.1408 93.5414 45.3236L88.4504 45.3215ZM93.5206 49.39C93.5206 49.39 93.525 49.4505 93.525 50.2078C93.525 52.6756 91.901 53.2241 90.9995 53.2241C90.0976 53.2241 88.4456 52.6756 88.4456 50.2078C88.4456 49.469 88.4504 47.4219 88.4504 47.4219C88.4504 47.4219 99.9454 47.4267 99.9454 47.4195C99.9454 43.2348 95.9046 39.7678 90.9414 39.7678C85.9782 39.7678 81.9558 43.1603 81.9558 47.345C81.9558 51.5297 85.9782 54.9202 90.9414 54.9202C95.0588 54.9202 98.5371 52.571 99.5992 49.3852L93.5206 49.39ZM112.721 39.9933C115.002 39.9284 119.631 41.4222 119.599 46.7644C119.594 47.7124 119.596 54.1072 119.596 54.1072H113.534V45.2443C113.534 44.0687 112.409 42.7605 110.746 42.7605C109.084 42.7605 107.848 44.0687 107.848 45.2443C107.848 45.8205 107.855 54.1068 107.855 54.1068H101.797L101.802 40.6133L107.858 40.6088C107.858 40.6088 107.85 41.6939 107.858 42.0284C109.024 40.9154 110.706 40.0514 112.721 39.9933ZM63.1296 39.9933C65.4115 39.9284 70.0398 41.4222 70.0077 46.7644C70.0029 47.7124 70.0053 54.1072 70.0053 54.1072H63.9427V45.2443C63.9427 44.0687 62.8183 42.7605 61.1543 42.7605C59.4931 42.7605 58.257 44.0687 58.257 45.2443C58.257 45.8205 58.2638 54.1068 58.2638 54.1068H52.2057L52.2033 40.6133L58.2659 40.6088C58.2659 40.6088 58.2591 41.6939 58.2659 42.0284C59.4323 40.9154 61.113 40.0514 63.1296 39.9933ZM132.75 33.8193H138.773V54.1116H132.741C132.741 54.1116 132.739 53.4565 132.739 53.3311C130.404 54.7972 127.768 54.7948 125.717 53.8375C125.166 53.5819 121.544 51.8438 121.544 47.1478C121.544 43.5854 124.904 39.6957 129.302 40.0815C130.75 40.2093 131.779 40.737 132.755 41.2851C132.75 38.1623 132.75 33.8193 132.75 33.8193ZM132.795 47.2965V44.8844C132.795 42.7977 131.354 42.2656 130.406 42.2656C129.435 42.2656 128.012 42.7977 128.012 44.8844C128.012 45.5768 128.015 47.2896 128.015 47.2896C128.015 47.2896 128.012 48.9717 128.012 49.6897C128.012 51.7744 129.435 52.3202 130.404 52.3202C131.354 52.3202 132.797 51.7741 132.797 49.6897C132.797 48.8231 132.795 47.2965 132.795 47.2965ZM152.13 47.2568C152.13 47.2568 152.127 49.2971 152.127 50.1149C152.127 52.2669 150.856 53.1544 149.634 53.1544C148.409 53.1544 147.134 52.2669 147.134 50.1149C147.134 49.2971 147.136 47.2059 147.136 47.2059C147.136 47.2059 147.141 45.2101 147.141 44.392C147.141 42.2492 148.419 41.3689 149.634 41.3689C150.852 41.3689 152.127 42.2496 152.127 44.392C152.127 45.2098 152.125 46.7227 152.132 47.264L152.13 47.2568ZM149.678 39.6957C144.752 39.6957 140.76 43.0882 140.76 47.2732C140.76 51.4579 144.754 54.8505 149.678 54.8505C154.604 54.8505 158.596 51.4579 158.596 47.2732C158.596 43.0882 154.604 39.6957 149.678 39.6957ZM42.7283 37.9623V33.8145H48.8439V37.9623H42.7283ZM42.742 54.1116V40.616L48.8439 40.6184V54.1116H42.742ZM73.3558 54.1116L73.3585 40.644H70.0401V38.641L73.3605 38.6386L73.3561 35.906H79.4624V38.6363H82.7668V40.6437H79.4624L79.4672 54.1116H73.3558ZM17.9093 54.1116L17.9117 33.8193H24.234L32.9803 47.9704L32.9755 33.8193H39.2497V54.1116H32.9851L24.1923 39.9609V54.1116H17.9093Z" fill="#E60012"/>
<path d="M23.4394 65.5533C9.72065 65.5485 0.553955 55.8265 0.553955 44.0386C0.553955 32.251 9.7415 22.4173 23.4186 22.4473H152.664C166.341 22.4173 175.529 32.251 175.529 44.0389C175.529 55.8265 166.362 65.5485 152.643 65.5533H23.4394ZM23.4815 27.7499C12.6207 27.7711 5.95425 35.0298 5.95425 44.0109C5.95425 52.9893 12.5787 60.3089 23.4815 60.2692H152.601C163.504 60.3068 170.13 52.9893 170.13 44.0109C170.13 35.0322 163.464 27.7731 152.603 27.7523L23.4815 27.7499ZM159.547 35.3299C160.534 35.3299 161.025 35.6644 161.025 36.3264C161.025 36.7819 160.741 37.1261 160.269 37.2443L161.043 38.7897H160.107L159.444 37.3721H159.033V38.7897H158.19V35.3299H159.547ZM159.47 33.9772C157.746 33.9772 156.347 35.3763 156.347 37.1004C156.347 38.8246 157.746 40.2233 159.47 40.2233C161.194 40.2233 162.593 38.8246 162.593 37.1004C162.593 35.3763 161.194 33.9772 159.47 33.9772ZM161.996 37.1025C161.996 38.4968 160.864 39.6284 159.47 39.6284C158.076 39.6284 156.944 38.4968 156.944 37.1028C156.944 35.7088 158.076 34.577 159.47 34.577C160.14 34.577 160.782 34.8431 161.256 35.3167C161.729 35.7903 161.996 36.4327 161.996 37.1025ZM159.033 36.8657H159.444C159.926 36.8657 160.158 36.7194 160.158 36.3753C160.158 36.0151 159.909 35.8592 159.403 35.8592H159.033V36.8657ZM88.4504 45.3215C88.4408 44.1387 88.4665 43.3486 88.8547 42.6747C89.3311 41.8429 90.207 41.4478 91.0015 41.4434H90.9992C91.7941 41.4478 92.67 41.8429 93.1463 42.6747C93.5342 43.351 93.5506 44.1408 93.5414 45.3236L88.4504 45.3215ZM93.5206 49.39C93.5206 49.39 93.525 49.4505 93.525 50.2078C93.525 52.6756 91.901 53.2241 90.9995 53.2241C90.0976 53.2241 88.4456 52.6756 88.4456 50.2078C88.4456 49.469 88.4504 47.4219 88.4504 47.4219C88.4504 47.4219 99.9454 47.4267 99.9454 47.4195C99.9454 43.2348 95.9046 39.7678 90.9414 39.7678C85.9782 39.7678 81.9558 43.1603 81.9558 47.345C81.9558 51.5297 85.9782 54.9202 90.9414 54.9202C95.0588 54.9202 98.5371 52.571 99.5992 49.3852L93.5206 49.39ZM112.721 39.9933C115.002 39.9284 119.631 41.4222 119.599 46.7644C119.594 47.7124 119.596 54.1072 119.596 54.1072H113.534V45.2443C113.534 44.0687 112.409 42.7605 110.746 42.7605C109.084 42.7605 107.848 44.0687 107.848 45.2443C107.848 45.8205 107.855 54.1068 107.855 54.1068H101.797L101.802 40.6133L107.858 40.6088C107.858 40.6088 107.85 41.6939 107.858 42.0284C109.024 40.9154 110.706 40.0514 112.721 39.9933ZM63.1296 39.9933C65.4115 39.9284 70.0398 41.4222 70.0077 46.7644C70.0029 47.7124 70.0053 54.1072 70.0053 54.1072H63.9427V45.2443C63.9427 44.0687 62.8183 42.7605 61.1543 42.7605C59.4931 42.7605 58.257 44.0687 58.257 45.2443C58.257 45.8205 58.2638 54.1068 58.2638 54.1068H52.2057L52.2033 40.6133L58.2659 40.6088C58.2659 40.6088 58.2591 41.6939 58.2659 42.0284C59.4323 40.9154 61.1123 40.0511 63.129 39.993L63.1296 39.9933ZM132.75 33.8193H138.773V54.1116H132.741C132.741 54.1116 132.739 53.4565 132.739 53.3311C130.404 54.7972 127.768 54.7948 125.717 53.8375C125.166 53.5819 121.544 51.8438 121.544 47.1478C121.544 43.5854 124.904 39.6957 129.302 40.0815C130.75 40.2093 131.779 40.737 132.755 41.2851C132.75 38.1623 132.75 33.8193 132.75 33.8193ZM132.795 47.2965V44.8844C132.795 42.7977 131.354 42.2656 130.406 42.2656C129.435 42.2656 128.012 42.7977 128.012 44.8844C128.012 45.5768 128.015 47.2896 128.015 47.2896C128.015 47.2896 128.012 48.9717 128.012 49.6897C128.012 51.7744 129.435 52.3202 130.404 52.3202C131.354 52.3202 132.797 51.7741 132.797 49.6897C132.797 48.8231 132.795 47.2965 132.795 47.2965ZM152.13 47.2568C152.13 47.2568 152.127 49.2971 152.127 50.1149C152.127 52.2669 150.856 53.1544 149.634 53.1544C148.409 53.1544 147.134 52.2669 147.134 50.1149C147.134 49.2971 147.136 47.2059 147.136 47.2059C147.136 47.2059 147.141 45.2101 147.141 44.392C147.141 42.2492 148.419 41.3689 149.634 41.3689C150.852 41.3689 152.127 42.2496 152.127 44.392C152.127 45.2098 152.125 46.7227 152.132 47.264L152.13 47.2568ZM149.678 39.6957C144.752 39.6957 140.76 43.0882 140.76 47.2732C140.76 51.4579 144.754 54.8505 149.678 54.8505C154.604 54.8505 158.596 51.4579 158.596 47.2732C158.596 43.0882 154.604 39.6957 149.678 39.6957ZM42.7283 37.9623V33.8145H48.8439V37.9623H42.7283ZM42.742 54.1116V40.616L48.8439 40.6184V54.1116H42.742ZM73.3558 54.1116L73.3585 40.644H70.0401V38.641L73.3605 38.6386L73.3561 35.906H79.4624V38.6363H82.7668V40.6437H79.4624L79.4672 54.1116H73.3558ZM17.9093 54.1116L17.9117 33.8193H24.234L32.9803 47.9704L32.9755 33.8193H39.2497V54.1116H32.9851L24.1923 39.9609V54.1116H17.9093Z" fill="white"/>
</svg>
