<svg width="176" height="88" viewBox="0 0 176 88" fill="none" xmlns="http://www.w3.org/2000/svg">
<g clip-path="url(#clip0_2063_28595)">
<path d="M23.4394 65.553C9.72065 65.5482 0.553955 55.8261 0.553955 44.0382C0.553955 32.2507 9.7415 22.4169 23.4186 22.447H152.664C166.341 22.4169 175.529 32.2507 175.529 44.0386C175.529 55.8261 166.362 65.5482 152.643 65.553H23.4394ZM159.547 35.3295C160.534 35.3295 161.025 35.6641 161.025 36.326C161.025 36.7816 160.741 37.1257 160.269 37.244L161.043 38.7893H160.107L159.444 37.3718H159.033V38.7893H158.19V35.3295H159.547ZM159.47 33.9768C157.746 33.9768 156.347 35.376 156.347 37.1001C156.347 38.8242 157.746 40.223 159.47 40.223C161.194 40.223 162.593 38.8242 162.593 37.1001C162.593 35.376 161.194 33.9768 159.47 33.9768ZM161.996 37.1021C161.996 38.4965 160.864 39.628 159.47 39.628C158.076 39.628 156.944 38.4965 156.944 37.1025C156.944 35.7085 158.076 34.5766 159.47 34.5766C160.14 34.5766 160.782 34.8427 161.256 35.3163C161.729 35.7899 161.996 36.4323 161.996 37.1021ZM159.033 36.8653H159.444C159.926 36.8653 160.158 36.719 160.158 36.3749C160.158 36.0147 159.909 35.8589 159.403 35.8589H159.033V36.8653ZM88.4504 45.3212C88.4408 44.1384 88.4665 43.3483 88.8547 42.6743C89.3311 41.8425 90.207 41.4474 91.0015 41.443H90.9992C91.7941 41.4474 92.67 41.8425 93.1464 42.6743C93.5342 43.3506 93.5506 44.1404 93.5414 45.3232L88.4504 45.3212ZM93.5206 49.3897C93.5206 49.3897 93.525 49.4502 93.525 50.2075C93.525 52.6752 91.901 53.2237 90.9995 53.2237C90.0976 53.2237 88.4456 52.6752 88.4456 50.2075C88.4456 49.4686 88.4504 47.4215 88.4504 47.4215C88.4504 47.4215 99.9454 47.4263 99.9454 47.4191C99.9454 43.2344 95.9046 39.7674 90.9414 39.7674C85.9782 39.7674 81.9558 43.1599 81.9558 47.3446C81.9558 51.5293 85.9782 54.9198 90.9414 54.9198C95.0588 54.9198 98.5371 52.5706 99.5992 49.3849L93.5206 49.3897ZM112.721 39.993C115.002 39.928 119.631 41.4218 119.599 46.764C119.594 47.712 119.596 54.1068 119.596 54.1068H113.534V45.2439C113.534 44.0683 112.409 42.7601 110.746 42.7601C109.084 42.7601 107.848 44.0683 107.848 45.2439C107.848 45.8201 107.855 54.1065 107.855 54.1065H101.797L101.802 40.6129L107.858 40.6085C107.858 40.6085 107.85 41.6935 107.858 42.0281C109.024 40.915 110.706 40.0511 112.721 39.993ZM63.1296 39.993C65.4115 39.928 70.0398 41.4218 70.0077 46.764C70.0029 47.712 70.0053 54.1068 70.0053 54.1068H63.9427V45.2439C63.9427 44.0683 62.8183 42.7601 61.1543 42.7601C59.4931 42.7601 58.257 44.0683 58.257 45.2439C58.257 45.8201 58.2638 54.1065 58.2638 54.1065H52.2057L52.2033 40.6129L58.2659 40.6085C58.2659 40.6085 58.2591 41.6935 58.2659 42.0281C59.4323 40.915 61.113 40.0511 63.1296 39.993ZM132.75 33.819H138.773V54.1112H132.741C132.741 54.1112 132.739 53.4561 132.739 53.3307C130.404 54.7968 127.768 54.7944 125.717 53.8372C125.166 53.5815 121.544 51.8434 121.544 47.1475C121.544 43.5851 124.904 39.6953 129.302 40.0811C130.75 40.209 131.779 40.7366 132.755 41.2848C132.75 38.1619 132.75 33.819 132.75 33.819ZM132.795 47.2961V44.8841C132.795 42.7973 131.354 42.2653 130.406 42.2653C129.435 42.2653 128.012 42.7973 128.012 44.8841C128.012 45.5764 128.015 47.2893 128.015 47.2893C128.015 47.2893 128.012 48.9714 128.012 49.6894C128.012 51.774 129.435 52.3198 130.404 52.3198C131.354 52.3198 132.797 51.7737 132.797 49.6894C132.797 48.8227 132.795 47.2961 132.795 47.2961ZM152.13 47.2565C152.13 47.2565 152.127 49.2967 152.127 50.1145C152.127 52.2665 150.856 53.154 149.634 53.154C148.409 53.154 147.134 52.2665 147.134 50.1145C147.134 49.2967 147.136 47.2056 147.136 47.2056C147.136 47.2056 147.141 45.2097 147.141 44.3916C147.141 42.2488 148.419 41.3685 149.634 41.3685C150.852 41.3685 152.127 42.2492 152.127 44.3916C152.127 45.2094 152.125 46.7223 152.132 47.2636L152.13 47.2565ZM149.678 39.6953C144.752 39.6953 140.76 43.0878 140.76 47.2729C140.76 51.4576 144.754 54.8501 149.678 54.8501C154.604 54.8501 158.596 51.4576 158.596 47.2729C158.596 43.0878 154.604 39.6953 149.678 39.6953ZM42.7283 37.962V33.8142H48.8439V37.962H42.7283ZM42.742 54.1112V40.6156L48.8439 40.618V54.1112H42.742ZM73.3558 54.1112L73.3585 40.6437H70.0401V38.6407L73.3605 38.6383L73.3561 35.9057H79.4624V38.6359H82.7668V40.6433H79.4624L79.4672 54.1112H73.3558ZM17.9093 54.1112L17.9117 33.819H24.234L32.9803 47.97L32.9755 33.819H39.2497V54.1112H32.9851L24.1923 39.9605V54.1112H17.9093Z" fill="#E60012"/>
<path d="M23.4394 65.553C9.72065 65.5482 0.553955 55.8261 0.553955 44.0382C0.553955 32.2507 9.7415 22.4169 23.4186 22.447H152.664C166.341 22.4169 175.529 32.2507 175.529 44.0386C175.529 55.8261 166.362 65.5482 152.643 65.553H23.4394ZM23.4815 27.7495C12.6207 27.7707 5.95425 35.0294 5.95425 44.0106C5.95425 52.9889 12.5787 60.3085 23.4815 60.2689H152.601C163.504 60.3064 170.13 52.9889 170.13 44.0106C170.13 35.0318 163.464 27.7728 152.603 27.7519L23.4815 27.7495ZM159.547 35.3295C160.534 35.3295 161.025 35.6641 161.025 36.326C161.025 36.7816 160.741 37.1257 160.269 37.244L161.043 38.7893H160.107L159.444 37.3718H159.033V38.7893H158.19V35.3295H159.547ZM159.47 33.9768C157.746 33.9768 156.347 35.376 156.347 37.1001C156.347 38.8242 157.746 40.223 159.47 40.223C161.194 40.223 162.593 38.8242 162.593 37.1001C162.593 35.376 161.194 33.9768 159.47 33.9768ZM161.996 37.1021C161.996 38.4965 160.864 39.628 159.47 39.628C158.076 39.628 156.944 38.4965 156.944 37.1025C156.944 35.7085 158.076 34.5766 159.47 34.5766C160.14 34.5766 160.782 34.8427 161.256 35.3163C161.729 35.7899 161.996 36.4323 161.996 37.1021ZM159.033 36.8653H159.444C159.926 36.8653 160.158 36.719 160.158 36.3749C160.158 36.0147 159.909 35.8589 159.403 35.8589H159.033V36.8653ZM88.4504 45.3212C88.4408 44.1384 88.4665 43.3483 88.8547 42.6743C89.3311 41.8425 90.207 41.4474 91.0015 41.443H90.9992C91.7941 41.4474 92.67 41.8425 93.1463 42.6743C93.5342 43.3506 93.5506 44.1404 93.5414 45.3232L88.4504 45.3212ZM93.5206 49.3897C93.5206 49.3897 93.525 49.4502 93.525 50.2075C93.525 52.6752 91.901 53.2237 90.9995 53.2237C90.0976 53.2237 88.4456 52.6752 88.4456 50.2075C88.4456 49.4686 88.4504 47.4215 88.4504 47.4215C88.4504 47.4215 99.9454 47.4263 99.9454 47.4191C99.9454 43.2344 95.9046 39.7674 90.9414 39.7674C85.9782 39.7674 81.9558 43.1599 81.9558 47.3446C81.9558 51.5293 85.9782 54.9198 90.9414 54.9198C95.0588 54.9198 98.5371 52.5706 99.5992 49.3849L93.5206 49.3897ZM112.721 39.993C115.002 39.928 119.631 41.4218 119.599 46.764C119.594 47.712 119.596 54.1068 119.596 54.1068H113.534V45.2439C113.534 44.0683 112.409 42.7601 110.746 42.7601C109.084 42.7601 107.848 44.0683 107.848 45.2439C107.848 45.8201 107.855 54.1065 107.855 54.1065H101.797L101.802 40.6129L107.858 40.6085C107.858 40.6085 107.85 41.6935 107.858 42.0281C109.024 40.915 110.706 40.0511 112.721 39.993ZM63.1296 39.993C65.4115 39.928 70.0398 41.4218 70.0077 46.764C70.0029 47.712 70.0053 54.1068 70.0053 54.1068H63.9427V45.2439C63.9427 44.0683 62.8183 42.7601 61.1543 42.7601C59.4931 42.7601 58.257 44.0683 58.257 45.2439C58.257 45.8201 58.2638 54.1065 58.2638 54.1065H52.2057L52.2033 40.6129L58.2659 40.6085C58.2659 40.6085 58.2591 41.6935 58.2659 42.0281C59.4323 40.915 61.1123 40.0507 63.129 39.9926L63.1296 39.993ZM132.75 33.819H138.773V54.1112H132.741C132.741 54.1112 132.739 53.4561 132.739 53.3307C130.404 54.7968 127.768 54.7944 125.717 53.8372C125.166 53.5815 121.544 51.8434 121.544 47.1475C121.544 43.5851 124.904 39.6953 129.302 40.0811C130.75 40.209 131.779 40.7366 132.755 41.2848C132.75 38.1619 132.75 33.819 132.75 33.819ZM132.795 47.2961V44.8841C132.795 42.7974 131.354 42.2653 130.406 42.2653C129.435 42.2653 128.012 42.7974 128.012 44.8841C128.012 45.5764 128.015 47.2893 128.015 47.2893C128.015 47.2893 128.012 48.9714 128.012 49.6894C128.012 51.774 129.435 52.3198 130.404 52.3198C131.354 52.3198 132.797 51.7737 132.797 49.6894C132.797 48.8227 132.795 47.2961 132.795 47.2961ZM152.13 47.2565C152.13 47.2565 152.127 49.2967 152.127 50.1145C152.127 52.2665 150.856 53.154 149.634 53.154C148.409 53.154 147.134 52.2665 147.134 50.1145C147.134 49.2967 147.136 47.2056 147.136 47.2056C147.136 47.2056 147.141 45.2097 147.141 44.3916C147.141 42.2488 148.419 41.3685 149.634 41.3685C150.852 41.3685 152.127 42.2492 152.127 44.3916C152.127 45.2094 152.125 46.7223 152.132 47.2637L152.13 47.2565ZM149.678 39.6953C144.752 39.6953 140.76 43.0878 140.76 47.2729C140.76 51.4576 144.754 54.8501 149.678 54.8501C154.604 54.8501 158.596 51.4576 158.596 47.2729C158.596 43.0878 154.604 39.6953 149.678 39.6953ZM42.7283 37.962V33.8142H48.8439V37.962H42.7283ZM42.742 54.1112V40.6156L48.8439 40.618V54.1112H42.742ZM73.3558 54.1112L73.3585 40.6437H70.0401V38.6407L73.3605 38.6383L73.3561 35.9057H79.4624V38.6359H82.7668V40.6433H79.4624L79.4672 54.1112H73.3558ZM17.9093 54.1112L17.9117 33.819H24.234L32.9803 47.97L32.9755 33.819H39.2497V54.1112H32.9851L24.1923 39.9605V54.1112H17.9093Z" fill="white"/>
</g>
<defs>
<clipPath id="clip0_2063_28595">
<rect width="176" height="88" fill="white"/>
</clipPath>
</defs>
</svg>
